# xmcd
#
# Track frame offsets: 
#        150
#        26055
#        40575
#        73633
#        105612
#
# Disc length: 2252 seconds
#
# Revision: 1
# Processed by: cddbd v1.5.2PL0 Copyright (c) Steve Scherf et al.
# Submitted via: ExactAudioCopy v1.1
#
DISCID=3908ca05
DTITLE=Kenny Burrell Quintet with John Coltrane - Interplay [CD5]
DYEAR=2007
DGENRE=Jazz
TTITLE0=Lyresto (mono)
TTITLE1=Why Was I Born (mono)
TTITLE2=Freight Trane (mono)
TTITLE3=I Never Knew (mono)
TTITLE4=Big Paul (mono)
EXTD=YEAR: 2007
EXTT0=
EXTT1=
EXTT2=
EXTT3=
EXTT4=
PLAYORDER=
